<?xml version="1.0" standalone="no"?>
<!DOCTYPE svg PUBLIC "-//W3C//DTD SVG 20010904//EN"
 "http://www.w3.org/TR/2001/REC-SVG-20010904/DTD/svg10.dtd">
<svg version="1.0" xmlns="http://www.w3.org/2000/svg"
 width="512.000000pt" height="512.000000pt" viewBox="0 0 512.000000 512.000000"
 preserveAspectRatio="xMidYMid meet">
<metadata>
Created by potrace 1.14, written by Peter Selinger 2001-2017
</metadata>
<g transform="translate(0.000000,512.000000) scale(0.100000,-0.100000)"
fill="#000000" stroke="none">
<path d="M1350 4205 l0 -275 194 0 195 0 3 -342 c4 -319 6 -348 27 -418 69
-234 210 -404 416 -505 105 -52 186 -73 311 -81 394 -28 728 213 836 601 22
78 22 96 26 688 l3 607 -1005 0 -1006 0 0 -275z m1510 -630 l0 -355 -307 2
-308 3 -3 353 -2 352 310 0 310 0 0 -355z"/>
<path d="M1360 2150 l0 -270 366 0 c289 0 365 -3 361 -12 -2 -7 -169 -286
-371 -621 l-366 -607 332 2 332 3 263 420 c145 231 267 426 272 433 5 10 96
-124 283 -420 l276 -433 326 -3 326 -2 -39 62 c-112 179 -721 1171 -721 1174
0 2 164 4 365 4 l365 0 0 270 0 270 -1185 0 -1185 0 0 -270z"/>
</g>
</svg>
