<?xml version="1.0" encoding="utf-8"?>
<!-- Generator: Adobe Illustrator 26.0.0, SVG Export Plug-In . SVG Version: 6.00 Build 0)  -->
<svg version="1.1" id="Layer_1" xmlns="http://www.w3.org/2000/svg" xmlns:xlink="http://www.w3.org/1999/xlink" x="0px" y="0px"
	 viewBox="0 0 512.349 560.535" style="enable-background:new 0 0 512.349 560.535;" xml:space="preserve">
<style type="text/css">
	.st0{opacity:0.25;fill:#FFFFFF;}
</style>
<g>
	<path class="st0" d="M123.886,487.938c-18.144,0-35.861-3.291-52.131-9.911c-29.774-12.115-52.417-34.551-63.76-63.176
		c-25.919-65.412,13.271-145.596,87.363-178.742c39.068-17.479,82.1-19.112,118.062-4.479
		c29.773,12.115,52.417,34.551,63.759,63.175c25.919,65.412-13.271,145.596-87.364,178.743l0,0
		C168.423,483.119,145.843,487.938,123.886,487.938z M161.284,229.714c-20.836,0-42.298,4.588-62.66,13.698
		C28.389,274.834-8.931,350.419,15.433,411.904c10.531,26.577,31.604,47.429,59.337,58.713
		c33.946,13.814,74.692,12.219,111.778-4.371l0,0c70.236-31.423,107.556-107.008,83.193-168.493
		c-10.53-26.576-31.604-47.428-59.337-58.712C195.093,232.81,178.4,229.714,161.284,229.714z"/>
	<path class="st0" d="M220.275,560.535c-0.65,0-1.219-0.082-1.681-0.187c-1.968-0.448-5.488-2.113-6.959-8.234L83.815,12.407
		c-1.464-6.478,0.929-9.532,2.484-10.78c1.501-1.203,4.837-2.835,10.316-0.253l408.376,189.705c1.749,0.697,3.319,1.838,4.55,3.31
		c1.242,1.488,2.115,3.287,2.528,5.203c0.411,1.896,0.367,3.896-0.13,5.778c-0.489,1.853-1.412,3.571-2.673,4.977L228.282,556.039
		C225.312,559.687,222.369,560.535,220.275,560.535z M91.391,8.015c-0.062,0.407-0.092,1.217,0.218,2.589l127.809,539.654
		c0.313,1.305,0.733,1.977,0.96,2.229c0.295-0.13,0.914-0.532,1.699-1.496l281.126-345.869l0.081-0.088
		c0.433-0.471,0.751-1.062,0.922-1.708c0.176-0.665,0.191-1.372,0.045-2.044c-0.143-0.661-0.436-1.27-0.85-1.765
		c-0.387-0.463-0.875-0.817-1.409-1.021l-0.258-0.109L93.209,8.612C92.356,8.209,91.749,8.059,91.391,8.015z"/>
</g>
</svg>
