<?xml version="1.0" encoding="utf-8"?>
<!-- Generator: Adobe Illustrator 26.0.0, SVG Export Plug-In . SVG Version: 6.00 Build 0)  -->
<svg version="1.1" id="Layer_1" xmlns="http://www.w3.org/2000/svg" xmlns:xlink="http://www.w3.org/1999/xlink" x="0px" y="0px"
	 viewBox="0 0 774.092 779.609" style="enable-background:new 0 0 774.092 779.609;" xml:space="preserve">
<style type="text/css">
	.st0{opacity:0.25;fill:#FFFFFF;}
</style>
<g>
	<path class="st0" d="M481.388,779.609c-10.359,0-20.814-0.378-31.344-1.138c-61.035-4.407-122.089-20.91-181.466-49.052
		c-98.27-46.389-178.377-119.129-225.56-204.818C20.059,482.904,6.122,440.369,1.595,398.178
		c-4.694-43.75,0.984-85.183,16.877-123.147c25.481-60.869,75.091-106.846,143.466-132.962
		c48.183-18.405,104.412-25.914,162.604-21.71c60.933,4.399,121.726,20.874,180.69,48.967
		c98.004,46.693,178.025,119.428,225.325,204.806c47.562,85.853,56.486,174.487,25.13,249.576
		c-25.427,60.888-74.836,106.87-142.888,132.977C573.352,771.817,528.427,779.608,481.388,779.609z M293.238,127.222
		c-45.966,0-89.868,7.584-128.445,22.319c-66.28,25.316-114.325,69.778-138.941,128.578C10.486,314.825,5.001,354.932,9.549,397.324
		c4.414,41.132,18.032,82.655,40.477,123.419c46.377,84.226,125.208,155.767,221.972,201.445l0.005,0.003
		c58.479,27.715,118.574,43.966,178.617,48.301c57.179,4.132,112.267-3.229,159.313-21.277
		c65.96-25.305,113.808-69.77,138.37-128.59c30.396-72.786,21.607-158.949-24.745-242.617
		c-46.498-83.932-125.257-155.479-221.769-201.461c-57.243-27.273-118.734-43.943-177.825-48.209
		C313.648,127.592,303.39,127.222,293.238,127.222z"/>
	<path class="st0" d="M505.699,393.719c-0.479,0-0.956-0.054-1.431-0.161c-2.802-0.639-4.902-3.06-5.764-6.644L409.242,10.153
		c-1.17-5.174,0.848-7.698,2.153-8.745c1.266-1.016,4.048-2.41,8.463-0.333l285.16,132.417c1.394,0.561,2.644,1.472,3.623,2.643
		c0.994,1.192,1.691,2.627,2.021,4.155c0.327,1.502,0.293,3.093-0.102,4.592c-0.392,1.477-1.122,2.839-2.118,3.955L512.24,390.134
		C510.342,392.463,508.021,393.719,505.699,393.719z M417.099,8.614l89.136,376.224l196.145-241.226l0.083-0.09
		c0.168-0.182,0.294-0.418,0.364-0.684c0.072-0.274,0.079-0.573,0.018-0.855c-0.06-0.277-0.178-0.523-0.342-0.72
		c-0.136-0.162-0.306-0.287-0.487-0.356l-0.257-0.109L417.099,8.614z"/>
</g>
</svg>
