<svg width="175" height="144" viewBox="0 0 175 144" fill="none" xmlns="http://www.w3.org/2000/svg">
<path d="M45.4406 141.643C52.0562 141.643 55.9593 138.487 55.9593 132.44C55.9593 126.392 51.9309 122.903 45.3108 122.903C38.6908 122.903 31.6858 126.058 25.9968 128.822L22.8905 130.335C17.8594 132.831 13.3027 134.54 9.19815 134.54C6.51253 134.54 5.42937 133.623 5.42937 132.239C5.42937 130.927 6.42307 130.201 8.14187 130.201H11.3153C13.4664 130.266 15.6179 130.089 17.7295 129.676V123.232H10.2501C3.98362 123.232 0 126.454 0 132.44C0 138.425 4.02835 141.972 10.447 141.972C16.8656 141.972 21.8251 139.275 27.5096 136.578L30.5533 135.003C36.305 132.373 42.3253 130.335 46.7566 130.335C49.469 130.335 50.5253 131.256 50.5253 132.635C50.5253 134.015 49.5361 134.674 47.8128 134.674H43.977C41.8232 134.606 39.6687 134.779 37.5538 135.19V141.643H45.4406ZM6.68716 121.617V116.01H55.4311V108.249H6.66924V102.66H0.537101V121.595L6.68716 121.617ZM54.7686 103.465H55.4311V96.6697L41.4076 95.8153V91.5432L55.4311 90.6888V83.1236H54.7686L0.537101 88.0588V98.5788L54.7686 103.465ZM14.0949 93.9996V93.341L35.1906 91.9615V95.4459L14.0949 93.9996ZM55.4311 81.1611V73.7784C55.4311 65.8216 50.2702 61.5495 38.2342 61.5495H17.7295C5.64421 61.5495 0.537101 65.8216 0.537101 73.7784V81.1433L55.4311 81.1611ZM5.8278 72.8082C5.8278 70.4452 7.47934 69.2481 10.523 69.2481H45.2437C48.2874 69.2481 49.8719 70.4319 49.8719 72.8082V73.6004H5.8278V72.8082ZM55.4311 51.4477H0.537101V59.2087H55.4311V51.4477ZM0.537101 48.8577H44.053C51.4609 48.8577 55.9593 45.4401 55.9593 39.2589C55.9593 33.0777 51.4609 29.5932 44.053 29.5932H0.537101V37.0872H47.8218C49.4779 37.0872 50.4672 37.7458 50.4672 39.1254C50.4672 40.5049 49.4779 41.1635 47.8218 41.1635H0.537101V48.8577ZM55.4311 26.9588V20.1857L24.4794 20.515V19.8564L55.4311 15.7801V11.1787L24.4794 7.10238V6.44376L55.4311 6.77307V0H0.537101V8.61096L36.9764 13.1501V13.8087L0.537101 18.3433V26.9588H55.4311Z" fill="#9E7AFC"/>
<path d="M118.023 23.4899C118.023 10.4823 108.321 0 93.6752 0H63.0814V69.9718H78.9225V46.9977H93.6752C108.335 46.9977 118.023 36.502 118.023 23.5034V23.4899ZM99.3657 32.362H78.9047V14.3711H99.3924L99.3657 32.362Z" fill="#001429"/>
<path d="M142.471 0L151.178 37.6858H134.052L142.471 0H126.497L110.901 69.9718H126.88L130.705 52.6775H154.625L158.643 69.9718H175L158.832 0H142.471Z" fill="#001429"/>
<path d="M117.006 125.453L97.6003 114.825C108.319 113.421 115.795 106.2 115.795 94.5679C115.795 82.1344 106.452 73.0142 93.5184 73.0142H63.0814V143.185H78.9944V121.533L117.006 144V125.453ZM78.7218 86.6405H99.1412V104.579H78.7264L78.7218 86.6405Z" fill="#001429"/>
<path d="M138.152 94.5038V72.994H122.093V142.699H138.152V120.993L175 142.986V123.464L149.104 107.448L175 91.1188V72L138.152 94.5038Z" fill="#001429"/>
</svg>
