<svg width="184" height="140" viewBox="0 0 184 140" fill="none" xmlns="http://www.w3.org/2000/svg">
<path d="M0.42573 59.7751C0.42573 68.4805 4.51549 73.6124 12.3575 73.6124C20.1109 73.6124 24.715 68.304 24.715 59.6029C24.715 50.8114 20.621 41.6755 17.0415 34.2015L15.0852 30.1115C11.843 23.4985 9.62956 17.4925 9.62956 12.0979C9.62956 8.52883 10.8229 7.13826 12.6105 7.13826C14.318 7.13826 15.254 8.42982 15.254 10.7073V14.8835C15.254 17.8413 15.3382 20.7129 15.9369 23.3263H24.289V13.4886C24.289 5.22239 20.1109 0 12.3575 0C4.60403 0 0 5.30849 0 13.7512C0 22.1079 3.49088 28.7208 6.98604 36.2035L9.0309 40.2074C12.4417 47.7805 15.0852 55.7066 15.0852 61.5317C15.0852 65.0965 13.888 66.4914 12.1004 66.4914C10.4139 66.4914 9.45684 65.1998 9.45684 62.9223V57.8765C9.45684 54.9144 9.37237 52.0428 8.77789 49.4337H0.42573V59.7751ZM26.4055 8.77856H33.653V72.9279H43.7085V8.77856H50.9519V0.684584H26.4055V8.77856ZM49.9357 72.0668V72.9279H58.7136L59.8226 54.4753H65.3625L66.4715 72.9279H76.2696V72.0668L69.8781 0.706079H56.243L49.9357 72.0668ZM62.2088 18.5474H63.052L64.8439 46.3081H60.3328L62.2088 18.5474ZM78.8456 72.9408H88.391C98.7036 72.9408 104.244 66.1513 104.244 50.312V23.3176C104.244 7.38795 98.7036 0.688841 88.391 0.688841H78.8456V72.9408ZM89.6686 7.6678C92.7379 7.6678 94.2726 9.84198 94.2726 13.8459V59.5383C94.2726 63.5423 92.7379 65.6304 89.6686 65.6304H88.6481V7.64626L89.6686 7.6678ZM107.326 72.9408H117.381V0.684584H107.326V72.9408ZM120.682 0.706079V57.9669C120.682 67.7141 125.113 73.6296 133.124 73.6296C141.219 73.6296 145.654 67.7141 145.654 57.9669V0.706079H135.936V62.9266C135.936 65.0793 135.093 66.4096 133.293 66.4096C131.606 66.4096 130.653 65.118 130.653 62.9266V0.684584L120.682 0.706079ZM149.065 72.9408H157.843L157.422 32.2081H158.265L163.552 72.9408H169.513L174.8 32.2081H175.644L175.222 72.9408H184V0.684584H172.836L166.954 48.6373H166.111L160.23 0.684584H149.065V72.9408Z" fill="white"/>
<path d="M154.428 99.6302V81.715H141.538V139.765H154.428V121.685L184 140V123.746L163.217 110.41L184 96.808V80.8889L154.428 99.6302Z" fill="#001429"/>
<path d="M44.4835 101.075C44.4835 90.4825 36.6276 81.9259 24.7597 81.9259H0V138.963H12.8206V120.224H24.7556C36.6109 120.224 44.4794 111.688 44.4794 101.075H44.4835ZM29.3718 108.296H12.8163V93.6278H29.3718V108.296Z" fill="#001429"/>
<path d="M40.4395 138.963H53.2917L56.3684 124.865H75.6063L78.8394 138.963H91.9999L78.9916 81.9259H65.8352L72.8381 112.647H59.0647L65.8352 81.9259H52.9831L40.4395 138.963Z" fill="#001429"/>
<path d="M137.495 124.812L121.856 116.115C130.514 114.967 136.527 109.061 136.527 99.5515C136.527 89.3846 128.992 81.9259 118.563 81.9259H94.022V139.325H106.856V121.614L137.495 140V124.812ZM106.625 93.0687H123.088V107.758H106.625V93.0687Z" fill="#001429"/>
</svg>
